<?xml version="1.0" encoding="utf-8"?>
<!-- Generator: Adobe Illustrator 22.1.0, SVG Export Plug-In . SVG Version: 6.00 Build 0)  -->
<svg version="1.1" id="Layer_1" xmlns="http://www.w3.org/2000/svg" xmlns:xlink="http://www.w3.org/1999/xlink" x="0px" y="0px"
	 viewBox="0 0 120 35" style="enable-background:new 0 0 120 35;" xml:space="preserve">
<style type="text/css">
	.st0{fill:#BDBAFA;}
	.st1{filter:url(#Adobe_OpacityMaskFilter);}
	.st2{fill:#FFFFFF;}
	.st3{mask:url(#b_1_);fill:#FFFFFF;}
</style>
<g>
	<path class="st0" d="M0,10.2L0,10.2l20.2,9.6l20.3-9.5v0L20.2,0.7L0,10.2z M7.3,10.3l12.9-6.1l12.9,6.1l-12.9,6.1L7.3,10.3
		L7.3,10.3z M20.2,23.5L0,14.1v3.5L20.2,27l20.3-9.4v-3.5C40.5,14.1,20.2,23.5,20.2,23.5z M20.2,30.5L0,21.1v3.5L20.2,34l20.3-9.4
		v-3.5C40.5,21.1,20.2,30.5,20.2,30.5z"/>
	<g transform="translate(52.048)">
		<defs>
			<filter id="Adobe_OpacityMaskFilter" filterUnits="userSpaceOnUse" x="0" y="0" width="67.9" height="34.9">
				<feColorMatrix  type="matrix" values="1 0 0 0 0  0 1 0 0 0  0 0 1 0 0  0 0 0 1 0"/>
			</filter>
		</defs>
		<mask maskUnits="userSpaceOnUse" x="0" y="0" width="67.9" height="34.9" id="b_1_">
			<g class="st1">
				<path id="a_1_" class="st2" d="M0,0h67.9v34.9H0V0z"/>
			</g>
		</mask>
		<path class="st3" d="M63.3,17.5c0-1.5-0.5-2.9-1.6-4c-0.5-0.5-1.1-0.9-1.7-1.2c-0.6-0.3-1.4-0.4-2.1-0.4c-0.7,0-1.4,0.1-2.1,0.4
			c-0.6,0.3-1.2,0.7-1.7,1.2c-1,1.1-1.6,2.5-1.6,4c0,1.5,0.5,2.9,1.6,4c0.5,0.5,1.1,0.9,1.7,1.2c0.6,0.3,1.3,0.4,2.1,0.4
			s1.4-0.1,2.1-0.4c0.6-0.3,1.2-0.7,1.7-1.2C62.7,20.4,63.3,19,63.3,17.5L63.3,17.5z M67.9,17.5c0,1.4-0.3,2.7-0.8,3.9
			c-0.5,1.2-1.2,2.2-2.1,3.1c-0.9,0.9-2,1.6-3.2,2.1c-1.2,0.5-2.5,0.8-3.9,0.8c-1.3,0-2.6-0.2-3.9-0.8c-1.2-0.5-2.2-1.2-3.2-2.1
			c-0.9-0.9-1.6-1.9-2.1-3.1c-0.5-1.2-0.8-2.5-0.8-3.9c0-1.3,0.3-2.6,0.8-3.8c0.5-1.2,1.2-2.2,2.1-3.1c0.9-0.9,2-1.6,3.2-2.1
			c1.2-0.5,2.5-0.8,3.8-0.8c1.4,0,2.7,0.3,3.9,0.8c1.2,0.5,2.3,1.2,3.2,2.1c0.9,0.9,1.6,1.9,2.1,3.1C67.7,14.8,67.9,16.1,67.9,17.5
			L67.9,17.5z M46.5,26.7c-0.4,0.2-0.8,0.3-1.2,0.4c-0.5,0.1-0.9,0.2-1.4,0.2c-0.7,0-1.3-0.1-2-0.3c-0.6-0.2-1.2-0.5-1.7-0.9
			c-0.5-0.4-0.8-0.9-1.1-1.6c-0.3-0.7-0.4-1.4-0.4-2.4V0h4.7v21.3c0,0.8,0.2,1.3,0.5,1.6s0.7,0.4,1.1,0.4c0.5,0,1.1-0.2,1.5-0.5
			C46.5,22.9,46.5,26.7,46.5,26.7z M36.5,8.1l-8.4,22.1c-0.6,1.7-1.4,2.8-2.4,3.6c-1,0.7-2.2,1.1-3.6,1.1c-0.5,0-1-0.1-1.5-0.2
			l-1.5-4.3c0.4,0.2,0.7,0.3,1.1,0.4c0.4,0.1,0.7,0.1,1.1,0.1c0.7,0,1.4-0.2,2-0.5c0.6-0.3,1.1-1,1.4-1.9l0.6-1.9L18.1,8.1h5.1
			l4.3,12l4-12C31.5,8.1,36.5,8.1,36.5,8.1z M17,5.3H4.9v6h11.9v4.1h-12v11.4H0V1h17V5.3L17,5.3z"/>
	</g>
</g>
</svg>
